# xmcd CD database file
#
# Track frame offsets:
#	150
#	45564
#	57511
#	72817
#	93257
#	101713
#	121210
#	130610
#	149003
#	165805
#	190249
#	194552
#
# Disc length: 2737 seconds
#
# Revision: 0
# Processed by: cddbd v1.5.2PL0 Copyright (c) Steve Scherf et al.
# Submitted via: CDex 1.51
#
DISCID=a70aaf0c
DTITLE=Matana Roberts - Coin Coin Chapter Three: River Run Thee
DYEAR=2015
DGENRE=Jazz
TTITLE0=All Is Written
TTITLE1=The Good Book Says 
TTITLE2=Clothed To The Land, Worn By The Sea
TTITLE3=Dreamer Of Dreams
TTITLE4=Always Say Your Name
TTITLE5=Nema, Nema, Nema
TTITLE6=A Single Man O' War
TTITLE7=As Years Roll By
TTITLE8=This Land Is Yours
TTITLE9=Come Away
TTITLE10=With Me Seek
TTITLE11=J.P.
EXTD=YEAR: 2015
EXTT0=
EXTT1=
EXTT2=
EXTT3=
EXTT4=
EXTT5=
EXTT6=
EXTT7=
EXTT8=
EXTT9=
EXTT10=
EXTT11=
PLAYORDER=
